<svg width="18" height="18" viewBox="0 0 18 18" fill="none" xmlns="http://www.w3.org/2000/svg">
<path fill-rule="evenodd" clip-rule="evenodd" d="M3 0C3.51284 0 3.93551 0.38604 3.99327 0.883379L4 1V2C5.10457 2 6 2.89543 6 4V7C6 8.10457 5.10457 9 4 9V17C4 17.5523 3.55228 18 3 18C2.48716 18 2.06449 17.614 2.00673 17.1166L2 17V9C0.89543 9 0 8.10457 0 7V4C0 2.89543 0.89543 2 2 2V1C2 0.447715 2.44772 0 3 0ZM3 7H4V4H3H2V7H3ZM6 12C6 10.8954 6.89543 10 8 10V1C8 0.447715 8.44771 0 9 0C9.51284 0 9.93551 0.38604 9.99327 0.883379L10 1V10C11.1046 10 12 10.8954 12 12V15C12 16.1046 11.1046 17 10 17C10 17.5523 9.55229 18 9 18C8.48716 18 8.06449 17.614 8.00673 17.1166L8 17C6.89543 17 6 16.1046 6 15V12ZM10 15H9H8V12H9H10V15ZM14 1C12.8954 1 12 1.89543 12 3V7C12 8.10457 12.8954 9 14 9V17L14.0067 17.1166C14.0645 17.614 14.4872 18 15 18C15.5523 18 16 17.5523 16 17V9C17.1046 9 18 8.10457 18 7V3C18 1.89543 17.1046 1 16 1L15.9933 0.883379C15.9355 0.38604 15.5128 0 15 0C14.4477 0 14 0.447715 14 1ZM15 7H16V3H15H14V7H15Z" fill="white"/>
</svg>
