<svg width="16" height="20" viewBox="0 0 16 20" fill="none" xmlns="http://www.w3.org/2000/svg">
<path fill-rule="evenodd" clip-rule="evenodd" d="M1.09421 15.9422H1.00421C0.738405 15.9438 0.482927 15.8394 0.294208 15.6522C0.0832448 15.4421 -0.0230662 15.1488 0.00420765 14.8522L0.434208 10.6822C0.479713 10.2254 0.680974 9.79821 1.00421 9.47224L10.0042 0.472243C10.78 -0.183206 11.9239 -0.153103 12.6642 0.542243L15.4042 3.28224C16.1702 4.01201 16.2015 5.22391 15.4742 5.99224L6.47421 14.9922C6.14824 15.3155 5.721 15.5167 5.26421 15.5622L1.09421 15.9422ZM14.0042 4.67224L11.2742 1.94224L9.32421 3.94224L12.0042 6.62224L14.0042 4.67224ZM2.37547 10.8522L8.00547 5.26221L10.7055 7.96221L5.10547 13.5622L2.10547 13.8422L2.37547 10.8522ZM1.00421 17.9422H15.0042C15.5565 17.9422 16.0042 18.39 16.0042 18.9422C16.0042 19.4945 15.5565 19.9422 15.0042 19.9422H1.00421C0.451923 19.9422 0.00420782 19.4945 0.0042078 18.9422C0.0042078 18.39 0.451923 17.9422 1.00421 17.9422Z" fill="white"/>
</svg>
